<?xml version="1.0" encoding="UTF-8" standalone="no"?>
<!DOCTYPE svg PUBLIC "-//W3C//DTD SVG 1.1//EN" "http://www.w3.org/Graphics/SVG/1.1/DTD/svg11.dtd">
<svg width="100%" height="100%" viewBox="0 0 534 166" version="1.1" xmlns="http://www.w3.org/2000/svg" xmlns:xlink="http://www.w3.org/1999/xlink" xml:space="preserve" xmlns:serif="http://www.serif.com/" style="fill-rule:evenodd;clip-rule:evenodd;stroke-linejoin:round;stroke-miterlimit:1.41421;">
    <g id="Монтажная-область2" serif:id="Монтажная область2" transform="matrix(0.859903,0,0,0.918837,0,0)">
        <rect x="0" y="0" width="621" height="180" style="fill:none;"/>
        <clipPath id="_clip1">
            <rect x="0" y="0" width="621" height="180"/>
        </clipPath>
        <g clip-path="url(#_clip1)">
            <g id="Монтажная-область1" serif:id="Монтажная область1" transform="matrix(0.376132,0,0,0.0772476,0,0)">
                <rect x="0" y="0" width="1920" height="2536" style="fill:none;"/>
                <g transform="matrix(2.60677,0,0,12.4608,0,-3925.17)">
                    <path d="M171.252,328.06C171.252,320.852 165.114,315 157.552,315L13.7,315C6.139,315 0,320.852 0,328.06L0,488.94C0,496.148 6.139,502 13.7,502L157.552,502C165.114,502 171.252,496.148 171.252,488.94L171.252,328.06Z" style="fill:rgb(255,55,0);"/>
                </g>
                <g transform="matrix(6.67421,0,0,30.4135,-1623.77,-10177.7)">
                    <path d="M254.402,397.254L272.729,349.533L279.533,349.533L299.064,397.254L291.87,397.254L286.303,382.801L266.349,382.801L261.108,397.254L254.402,397.254ZM268.172,377.658L284.35,377.658L279.37,364.441C277.851,360.427 276.722,357.128 275.984,354.546C275.377,357.605 274.52,360.644 273.413,363.66L268.172,377.658Z" style="fill:white;fill-rule:nonzero;"/>
                </g>
                <g transform="matrix(3.09179,0,0,14.0889,0,-28.1778)">
                    <path d="M276.547,137.444L264.15,137.444L263.981,137.429L263.816,137.386L263.661,137.316L263.521,137.221L263.398,137.104L263.298,136.966L263.221,136.816L263.172,136.653L263.151,136.484L263.158,136.314L263.194,136.149L263.257,135.992L263.347,135.847L293.082,95.782L266.901,59.025L266.814,58.879L266.753,58.722L266.721,58.557L266.716,58.389L266.739,58.222L266.791,58.062L266.868,57.913L266.969,57.777L267.09,57.661L267.231,57.568L267.384,57.5L267.546,57.457L267.715,57.444L280.006,57.444L280.163,57.457L280.318,57.495L280.465,57.555L280.599,57.64L280.72,57.745L280.821,57.866L294.974,77.872L295.247,78.257L295.517,78.64L295.782,79.018L296.042,79.389L296.297,79.753L296.547,80.113L296.79,80.467L297.031,80.817L297.266,81.16L297.496,81.497L297.72,81.829L297.941,82.156L298.155,82.478L298.366,82.793L298.572,83.104L298.771,83.408L298.967,83.707L299.157,84.001L299.343,84.289L299.523,84.571L299.7,84.848L299.87,85.121L300.036,85.385L300.197,85.647L300.353,85.902L300.468,86.092L300.607,85.876L300.783,85.601L300.963,85.327L301.143,85.052L301.326,84.776L301.511,84.5L301.697,84.222L301.885,83.944L302.076,83.666L302.267,83.386L302.462,83.105L302.656,82.826L302.854,82.543L303.054,82.262L303.255,81.979L303.459,81.695L303.663,81.41L303.871,81.126L304.078,80.84L304.289,80.554L304.502,80.268L304.716,79.98L304.932,79.691L305.151,79.402L305.37,79.112L305.592,78.821L305.813,78.534L321.507,57.84L321.608,57.725L321.727,57.627L321.858,57.549L322,57.49L322.151,57.455L322.303,57.444L333.53,57.444L333.698,57.459L333.863,57.501L334.019,57.572L334.159,57.666L334.282,57.784L334.382,57.921L334.458,58.073L334.507,58.235L334.529,58.403L334.522,58.573L334.485,58.74L334.421,58.897L334.331,59.041L307.367,95.22L336.47,135.861L336.557,136.005L336.618,136.162L336.652,136.327L336.657,136.496L336.634,136.662L336.583,136.824L336.506,136.973L336.405,137.109L336.282,137.225L336.142,137.318L335.988,137.386L335.826,137.429L335.658,137.444L322.888,137.444L322.729,137.431L322.576,137.393L322.429,137.331L322.293,137.247L322.174,137.143L322.072,137.02L302.436,109.188L302.223,108.881L302.014,108.574L301.805,108.263L301.594,107.949L301.382,107.632L301.169,107.312L300.957,106.99L300.742,106.663L300.528,106.333L300.313,106L300.095,105.663L299.879,105.323L299.86,105.295L299.775,105.432L299.489,105.893L299.214,106.333L298.951,106.753L298.699,107.152L298.459,107.531L298.23,107.889L298.014,108.227L297.809,108.544L297.612,108.84L297.429,109.118L297.258,109.375L297.096,109.612L296.942,109.832L277.358,137.027L277.257,137.148L277.137,137.251L277.003,137.332L276.858,137.395L276.704,137.431L276.547,137.444ZM302.458,107.443L302.634,107.704L302.841,108.012L303.049,108.316L303.256,108.616C302.992,108.233 302.726,107.842 302.458,107.443ZM296.779,108.291L296.743,108.344L296.779,108.291L296.925,108.067L296.779,108.291ZM297.174,107.684L297,107.953L297.174,107.685L297.269,107.536L297.174,107.684ZM301.282,105.657L301.367,105.789L301.579,106.116L301.792,106.441L301.983,106.729C301.751,106.378 301.517,106.021 301.282,105.657ZM299.85,103.402C299.243,104.393 298.698,105.275 298.212,106.05L298.368,105.803L298.64,105.364L298.925,104.904L299.222,104.425L299.531,103.924L299.85,103.402ZM300.386,104.256L300.505,104.445L300.721,104.785L300.937,105.123L301.115,105.399L300.722,104.786L300.386,104.256ZM300.222,103.996L299.85,103.402L300.069,103.754L300.222,103.996ZM302.026,85.531L301.978,85.603L301.8,85.874L301.622,86.145L301.447,86.417L301.274,86.686L301.102,86.956L300.934,87.224L300.765,87.492L300.6,87.76L300.437,88.027C300.94,87.205 301.469,86.373 302.026,85.531ZM298.854,85.382L298.953,85.539L298.855,85.382L298.833,85.348L298.854,85.382ZM303.048,84.016L302.9,84.23L302.712,84.506L302.526,84.781L302.341,85.055L302.218,85.242C302.488,84.835 302.765,84.427 303.048,84.016ZM297.73,83.643C297.824,83.785 297.916,83.925 298.006,84.064L297.936,83.955L297.737,83.653L297.73,83.643ZM303.282,83.676L303.148,83.871L303.283,83.676L303.461,83.42L303.282,83.676ZM304.444,82.038L304.27,82.278L304.069,82.559L303.869,82.841L303.671,83.12L303.501,83.364C303.808,82.924 304.123,82.482 304.444,82.038ZM297.111,82.713L297.348,83.068L297.325,83.033L297.111,82.713L297.106,82.706L297.111,82.713ZM304.678,81.714L304.52,81.934L304.679,81.714L304.852,81.478L304.678,81.714ZM296.224,81.408L296.566,81.909L296.44,81.723L296.224,81.408ZM306.609,79.14L306.386,79.429L306.166,79.717L305.948,80.005L305.731,80.292L305.517,80.578L305.304,80.863L305.093,81.147L304.906,81.404C305.315,80.846 305.735,80.284 306.167,79.717L306.609,79.14ZM295.726,80.685L296.185,81.351L295.968,81.034L295.726,80.685ZM295.307,80.082L295.723,80.68L295.476,80.323L295.307,80.082ZM294.974,79.607L294.963,79.591L294.7,79.215L294.432,78.834L294.157,78.449L294.699,79.216L294.974,79.607Z" style="fill:rgb(255,55,0);fill-rule:nonzero;"/>
                </g>
                <g transform="matrix(6.67421,0,0,30.4135,-585.589,-10182.7)">
                    <path d="M257.82,400.119L263.517,400.965C263.756,402.723 264.418,404.003 265.503,404.806C266.957,405.891 268.942,406.434 271.46,406.434C274.172,406.434 276.267,405.891 277.742,404.806C279.218,403.721 280.216,402.202 280.737,400.249C281.041,399.055 281.182,396.549 281.16,392.729C278.599,395.746 275.409,397.254 271.59,397.254C266.837,397.254 263.159,395.54 260.555,392.111C257.951,388.682 256.648,384.569 256.648,379.773C256.648,376.475 257.245,373.431 258.439,370.643C259.632,367.854 261.363,365.7 263.631,364.181C265.899,362.662 268.563,361.902 271.622,361.902C275.702,361.902 279.066,363.552 281.714,366.85L281.714,362.684L287.117,362.684L287.117,392.566C287.117,397.948 286.569,401.762 285.473,404.008C284.377,406.255 282.641,408.029 280.265,409.331C277.889,410.633 274.964,411.284 271.492,411.284C267.369,411.284 264.038,410.356 261.499,408.501C258.96,406.645 257.734,403.851 257.82,400.119ZM262.671,379.35C262.671,383.886 263.571,387.195 265.372,389.279C267.174,391.362 269.431,392.404 272.143,392.404C274.834,392.404 277.091,391.367 278.914,389.295C280.737,387.222 281.648,383.973 281.648,379.546C281.648,375.314 280.71,372.124 278.833,369.975C276.956,367.827 274.693,366.753 272.046,366.753C269.441,366.753 267.228,367.811 265.405,369.926C263.582,372.042 262.671,375.184 262.671,379.35Z" style="fill:white;fill-rule:nonzero;"/>
                </g>
                <g transform="matrix(6.67421,0,0,30.4135,-296.782,-10202.3)">
                    <path d="M282.56,386.121L288.615,386.87C287.66,390.407 285.891,393.152 283.309,395.105C280.726,397.059 277.428,398.035 273.413,398.035C268.356,398.035 264.347,396.478 261.385,393.364C258.423,390.25 256.941,385.882 256.941,380.262C256.941,374.446 258.439,369.932 261.434,366.72C264.428,363.508 268.313,361.902 273.087,361.902C277.71,361.902 281.486,363.476 284.415,366.622C287.345,369.769 288.81,374.196 288.81,379.904C288.81,380.251 288.799,380.772 288.777,381.466L262.996,381.466C263.213,385.264 264.287,388.172 266.219,390.19C268.15,392.208 270.559,393.217 273.445,393.217C275.594,393.217 277.428,392.653 278.947,391.525C280.466,390.396 281.67,388.595 282.56,386.121ZM263.322,376.648L282.625,376.648C282.365,373.74 281.627,371.559 280.411,370.105C278.545,367.849 276.125,366.72 273.152,366.72C270.461,366.72 268.199,367.621 266.365,369.422C264.531,371.223 263.517,373.632 263.322,376.648Z" style="fill:white;fill-rule:nonzero;"/>
                </g>
                <g transform="matrix(6.67421,0,0,30.4135,-1206.15,-10177.7)">
                    <path d="M259.643,397.254L259.643,349.533L277.645,349.533C280.813,349.533 283.233,349.684 284.904,349.988C287.247,350.379 289.211,351.122 290.796,352.218C292.38,353.314 293.655,354.849 294.62,356.824C295.586,358.799 296.069,360.969 296.069,363.335C296.069,367.393 294.778,370.827 292.195,373.637C289.613,376.448 284.947,377.853 278.198,377.853L265.958,377.853L265.958,397.254L259.643,397.254ZM265.958,372.221L278.296,372.221C282.375,372.221 285.273,371.462 286.987,369.943C288.701,368.424 289.559,366.286 289.559,363.53C289.559,361.533 289.054,359.824 288.045,358.403C287.036,356.982 285.707,356.043 284.057,355.587C282.994,355.305 281.03,355.164 278.165,355.164L265.958,355.164L265.958,372.221Z" style="fill:white;fill-rule:nonzero;"/>
                </g>
            </g>
        </g>
    </g>
</svg>
