<?xml version="1.0" encoding="UTF-8" standalone="no"?>
<!DOCTYPE svg PUBLIC "-//W3C//DTD SVG 1.1//EN" "http://www.w3.org/Graphics/SVG/1.1/DTD/svg11.dtd">
<svg width="100%" height="100%" viewBox="0 0 57 57" version="1.1" xmlns="http://www.w3.org/2000/svg" xmlns:xlink="http://www.w3.org/1999/xlink" xml:space="preserve" xmlns:serif="http://www.serif.com/" style="fill-rule:evenodd;clip-rule:evenodd;stroke-linejoin:round;stroke-miterlimit:1.41421;">
    <g>
        <g transform="matrix(0.122637,0,0,0.122637,4.50006,-0.000400606)">
            <path d="M144.299,377.699L194.699,234.099L62.299,233.699C56.699,233.699 52.299,229.299 52.299,223.699C52.299,221.299 53.099,219.299 54.699,217.299C93.499,169.699 132.299,122.099 171.099,74.499C190.299,51.299 209.499,27.699 229.099,3.699C232.699,-0.701 238.699,-1.101 243.099,2.099C246.299,4.899 247.499,9.299 246.299,13.299L195.499,157.299L327.899,157.699C333.499,157.699 337.899,162.099 337.899,167.699C337.899,170.099 337.099,172.099 335.899,173.699C298.699,221.699 259.499,268.899 220.299,316.499C201.099,339.699 181.899,362.899 161.499,387.699C157.899,392.099 151.899,392.499 147.499,389.299C143.899,386.099 142.699,381.699 144.299,377.699" style="fill:rgb(255,230,0);fill-rule:nonzero;"/>
        </g>
        <g transform="matrix(0.122637,0,0,0.122637,4.50006,-0.000400606)">
            <path d="M119.499,332.899C124.299,335.699 126.299,341.699 123.499,346.499C120.699,351.299 114.699,353.299 109.899,350.499C81.099,334.899 57.499,312.099 41.099,284.499C25.099,257.299 15.899,226.099 15.899,192.899C15.899,151.299 30.299,112.499 54.699,81.699C79.099,50.899 113.899,28.099 154.299,18.499C159.499,17.299 165.099,20.499 166.299,26.099C167.499,31.299 164.299,36.899 158.699,38.099C122.699,46.499 91.899,66.899 70.299,94.099C48.699,121.299 35.899,156.099 35.899,192.899C35.899,222.099 43.899,250.099 58.299,274.499C73.099,298.899 93.899,319.299 119.499,332.899" style="fill:rgb(87,255,0);fill-rule:nonzero;"/>
        </g>
        <g transform="matrix(0.122637,0,0,0.122637,4.50006,-0.000400606)">
            <path d="M273.099,53.699C268.299,50.899 266.299,44.899 269.099,40.099C271.899,35.299 277.899,33.299 282.699,36.099C311.499,51.699 334.699,74.899 350.699,101.699C366.699,128.899 375.499,160.099 375.499,192.899C375.499,234.899 360.699,274.099 335.899,304.899C311.099,335.699 275.899,358.499 235.099,367.699C229.899,368.899 224.299,365.299 223.099,360.099C221.899,354.899 225.499,349.299 230.699,348.099C267.099,340.099 298.299,319.699 320.299,292.499C342.299,264.899 355.499,230.099 355.499,192.899C355.499,163.699 347.499,136.099 333.499,112.099C319.099,88.099 298.699,67.699 273.099,53.699" style="fill:rgb(87,255,0);fill-rule:nonzero;"/>
        </g>
    </g>
</svg>
