<?xml version="1.0" encoding="UTF-8" standalone="no"?>
<!DOCTYPE svg PUBLIC "-//W3C//DTD SVG 1.1//EN" "http://www.w3.org/Graphics/SVG/1.1/DTD/svg11.dtd">
<svg width="100%" height="100%" viewBox="0 0 57 57" version="1.1" xmlns="http://www.w3.org/2000/svg" xmlns:xlink="http://www.w3.org/1999/xlink" xml:space="preserve" xmlns:serif="http://www.serif.com/" style="fill-rule:evenodd;clip-rule:evenodd;stroke-linecap:round;stroke-miterlimit:10;">
    <g transform="matrix(0.872727,0,0,0.872727,3.62727,0.254545)">
        <path d="M16.5,28L16.5,12.601C16.5,6.77 21.675,2 28,2C34.325,2 39.5,6.77 39.5,12.601L39.5,28L16.5,28Z" style="fill:none;stroke:rgb(66,74,96);stroke-width:4px;"/>
    </g>
    <g transform="matrix(0.872727,0,0,0.872727,3.62727,0.254545)">
        <rect x="7.5" y="25" width="42" height="32" style="fill:rgb(255,227,0);"/>
    </g>
    <g transform="matrix(0.872727,0,0,0.872727,3.62727,0.254545)">
        <path d="M28.5,45C26.85,45 25.5,43.65 25.5,42L25.5,36C25.5,34.35 26.85,33 28.5,33C30.15,33 31.5,34.35 31.5,36L31.5,42C31.5,43.65 30.15,45 28.5,45Z" style="fill:rgb(66,74,96);fill-rule:nonzero;"/>
    </g>
    <g transform="matrix(0.872727,0,0,0.872727,3.62727,0.254545)">
        <rect x="7.5" y="51" width="42" height="6" style="fill:rgb(56,69,79);"/>
    </g>
</svg>
