<?xml version="1.0" encoding="UTF-8" standalone="no"?>
<!DOCTYPE svg PUBLIC "-//W3C//DTD SVG 1.1//EN" "http://www.w3.org/Graphics/SVG/1.1/DTD/svg11.dtd">
<svg width="100%" height="100%" viewBox="0 0 512 512" version="1.1" xmlns="http://www.w3.org/2000/svg" xmlns:xlink="http://www.w3.org/1999/xlink" xml:space="preserve" xmlns:serif="http://www.serif.com/" style="fill-rule:evenodd;clip-rule:evenodd;stroke-linejoin:round;stroke-miterlimit:1.41421;">
    <g transform="matrix(1.20364,0,0,1.20364,-52.1331,-52.1235)">
        <path d="M267.781,283.777C270.414,283.777 272.848,282.371 274.164,280.09L285.945,259.684C287.262,257.402 287.262,254.594 285.945,252.316L282.691,246.68L355.664,312.082C356.895,313.184 355.668,315.309 354.098,314.797L259.371,283.777L267.781,283.777Z" style="fill:rgb(228,227,225);fill-rule:nonzero;"/>
    </g>
    <g transform="matrix(1.20364,0,0,1.20364,-52.1331,-52.1235)">
        <path d="M282.691,246.68L285.945,252.316C287.262,254.594 287.262,257.402 285.945,259.684L274.164,280.09C272.848,282.371 270.414,283.777 267.781,283.777L259.371,283.777L290.266,293.895C291.063,292.871 291.797,291.789 292.453,290.652L304.234,270.246C304.789,269.289 305.27,268.305 305.703,267.301L282.691,246.68Z" style="fill:rgb(209,208,207);fill-rule:nonzero;"/>
    </g>
    <g transform="matrix(1.20364,0,0,1.20364,-52.1331,-52.1235)">
        <path d="M256,69.91L256,43.305C217.75,43.305 181.367,53.418 149.641,71.777L162.945,94.82C190.699,78.762 222.531,69.91 256,69.91Z" style="fill:rgb(154,209,75);fill-rule:nonzero;"/>
    </g>
    <g transform="matrix(1.20364,0,0,1.20364,-52.1331,-52.1235)">
        <path d="M94.82,162.941L71.777,149.637C53.672,180.926 43.305,217.254 43.305,256L69.91,256C69.91,222.098 78.98,190.316 94.82,162.941Z" style="fill:rgb(180,225,249);fill-rule:nonzero;"/>
    </g>
    <g transform="matrix(1.20364,0,0,1.20364,-52.1331,-52.1235)">
        <path d="M417.18,162.941L440.223,149.637C421.551,117.363 394.637,90.449 362.363,71.777L349.059,94.82C377.297,111.16 400.84,134.703 417.18,162.941Z" style="fill:rgb(255,201,100);fill-rule:nonzero;"/>
    </g>
    <g transform="matrix(1.20364,0,0,1.20364,-52.1331,-52.1235)">
        <path d="M417.18,349.059L440.223,362.363C458.328,331.074 468.695,294.75 468.695,256L442.09,256C442.09,289.902 433.02,321.684 417.18,349.059Z" style="fill:rgb(237,84,84);fill-rule:nonzero;"/>
    </g>
    <g transform="matrix(1.20364,0,0,1.20364,-52.1331,-52.1235)">
        <path d="M94.82,349.059C78.98,321.684 69.91,289.902 69.91,256L43.305,256C43.305,294.746 53.672,331.074 71.777,362.363L94.82,349.059Z" style="fill:rgb(114,189,246);fill-rule:nonzero;"/>
    </g>
    <g transform="matrix(1.20364,0,0,1.20364,-52.1331,-52.1235)">
        <path d="M442.09,256L468.695,256C468.695,217.254 458.328,180.926 440.223,149.637L417.18,162.941C433.02,190.316 442.09,222.098 442.09,256Z" style="fill:rgb(243,163,52);fill-rule:nonzero;"/>
    </g>
    <g transform="matrix(1.20364,0,0,1.20364,-52.1331,-52.1235)">
        <path d="M349.059,94.82L362.363,71.777C331.074,53.676 294.75,43.309 256,43.309L256,69.914C289.902,69.91 321.684,78.98 349.059,94.82Z" style="fill:rgb(255,225,131);fill-rule:nonzero;"/>
    </g>
    <g transform="matrix(1.20364,0,0,1.20364,-52.1331,-52.1235)">
        <path d="M162.941,94.82L149.637,71.777C117.363,90.453 90.449,117.363 71.777,149.641L94.82,162.945C111.16,134.703 134.703,111.16 162.941,94.82Z" style="fill:rgb(118,171,41);fill-rule:nonzero;"/>
    </g>
    <g transform="matrix(1.20364,0,0,1.20364,-52.1331,-52.1235)">
        <path d="M286.391,252.059L274.609,231.652C273.207,229.219 270.59,227.711 267.781,227.711L244.219,227.711C241.41,227.711 238.797,229.223 237.391,231.652L225.609,252.059C224.203,254.488 224.203,257.512 225.609,259.941L237.391,280.348C238.797,282.781 241.41,284.293 244.219,284.293L267.781,284.293C270.59,284.293 273.207,282.781 274.609,280.348L286.391,259.941C287.797,257.512 287.797,254.488 286.391,252.059Z" style="fill:rgb(237,84,84);fill-rule:nonzero;"/>
    </g>
    <g transform="matrix(1.20364,0,0,1.20364,-52.1331,-52.1235)">
        <path d="M257.996,280.348L246.215,259.941C244.809,257.512 244.809,254.488 246.215,252.059L257.996,231.652C259.398,229.219 262.016,227.711 264.824,227.711L244.219,227.711C241.41,227.711 238.797,229.223 237.391,231.652L225.609,252.059C224.203,254.488 224.203,257.512 225.609,259.941L237.391,280.348C238.797,282.781 241.41,284.293 244.219,284.293L264.824,284.293C262.016,284.293 259.398,282.781 257.996,280.348Z" style="fill:rgb(234,63,63);fill-rule:nonzero;"/>
    </g>
</svg>
