<?xml version="1.0" encoding="UTF-8" standalone="no"?>
<!DOCTYPE svg PUBLIC "-//W3C//DTD SVG 1.1//EN" "http://www.w3.org/Graphics/SVG/1.1/DTD/svg11.dtd">
<svg width="100%" height="100%" viewBox="0 0 57 57" version="1.1" xmlns="http://www.w3.org/2000/svg" xmlns:xlink="http://www.w3.org/1999/xlink" xml:space="preserve" xmlns:serif="http://www.serif.com/" style="fill-rule:evenodd;clip-rule:evenodd;stroke-linejoin:round;stroke-miterlimit:1.41421;">
    <g>
        <g transform="matrix(0.842105,0,0,0.842105,4.5,0)">
            <path d="M42.111,8.847C41.638,8.557 41.024,8.704 40.735,9.174C40.445,9.645 40.592,10.26 41.062,10.55C48.224,14.96 52.5,22.604 52.5,31C52.5,33.067 52.229,35.137 51.695,37.152C51.554,37.685 51.872,38.233 52.406,38.375C52.491,38.397 52.578,38.408 52.662,38.408C53.105,38.408 53.51,38.112 53.628,37.664C54.207,35.482 54.5,33.24 54.5,31C54.5,21.905 49.869,13.623 42.111,8.847Z" style="fill:rgb(66,74,96);fill-rule:nonzero;"/>
        </g>
        <g transform="matrix(0.842105,0,0,0.842105,4.5,0)">
            <path d="M37.671,53.182C34.756,54.388 31.671,55 28.5,55C21.772,55 15.311,52.146 10.772,47.168C10.4,46.76 9.769,46.731 9.359,47.103C8.951,47.475 8.922,48.108 9.294,48.516C14.211,53.907 21.211,57 28.5,57C31.935,57 35.278,56.337 38.436,55.029C38.946,54.818 39.189,54.233 38.978,53.722C38.767,53.213 38.181,52.971 37.671,53.182Z" style="fill:rgb(66,74,96);fill-rule:nonzero;"/>
        </g>
        <g transform="matrix(0.842105,0,0,0.842105,4.5,0)">
            <path d="M22.784,7.687C23.321,7.555 23.649,7.014 23.518,6.478C23.388,5.942 22.844,5.616 22.31,5.744C11.302,8.434 3.371,17.838 2.573,29.146C2.534,29.697 2.949,30.175 3.5,30.213C3.524,30.215 3.548,30.216 3.571,30.216C4.092,30.216 4.53,29.814 4.568,29.286C5.305,18.85 12.625,10.169 22.784,7.687Z" style="fill:rgb(66,74,96);fill-rule:nonzero;"/>
        </g>
    </g>
    <g transform="matrix(0.842105,0,0,0.842105,4.5,0)">
        <circle cx="28.5" cy="6" r="6" style="fill:rgb(255,242,0);"/>
    </g>
    <g transform="matrix(0.842105,0,0,0.842105,4.5,0)">
        <circle cx="6.5" cy="43" r="6" style="fill:rgb(0,54,255);"/>
    </g>
    <g transform="matrix(0.842105,0,0,0.842105,4.5,0)">
        <circle cx="50.5" cy="43" r="6" style="fill:rgb(0,255,58);"/>
    </g>
</svg>
