<?xml version="1.0" encoding="utf-8"?>
<!-- Generator: Adobe Illustrator 19.0.1, SVG Export Plug-In . SVG Version: 6.00 Build 0)  -->
<svg version="1.1" id="Слой_1" xmlns="http://www.w3.org/2000/svg" xmlns:xlink="http://www.w3.org/1999/xlink" x="0px" y="0px"
	 viewBox="0 0 254.3 117.3" style="enable-background:new 0 0 254.3 117.3;" xml:space="preserve">
<style type="text/css">
	.st0{fill:#201600;}
	.st1{font-family:'MyriadPro-Regular';}
	.st2{font-size:29px;}
	.st3{fill:none;stroke:#201600;stroke-miterlimit:10;}
</style>
<path class="st0" d="M216.2,40.3c-19.9-6.5-41.3-8.1-62.3-8.5c-2-0.5-4.1-0.5-6.1-0.8c-2.4-0.3-4.8-0.5-7.3-0.7
	c-0.3,0-0.5,0-0.8-0.1c0-0.1,0-0.1-0.1-0.2c-1.7-0.9-3.7-1.7-4.8-3.5c-0.7-1.2-0.7-2.5,0-3.6c0.7-1.1,2-1.8,2-3.2
	c0.1-1.9-1.7-2.3-3.2-2.8c-2-0.6-4.3-1.3-6.5-1.1c-1.9-0.1-4,0.4-5.8,0.9c-1.4,0.4-3.4,0.7-3.8,2.4c-0.6,2.6,3.2,3.7,2.4,6.4
	c-0.7,2.4-3.3,3.4-5.2,4.5c0,0,0,0,0,0c-4.8,0.3-9.5,0.8-14.2,1.4c-0.2,0-0.3,0.1-0.4,0.2C93.1,32,86,32.3,79,32.9
	c-13.7,1.1-27.5,3-40.7,7.2c-0.6,0.2-0.3,1.2,0.3,1c23-7.4,47.9-8.2,71.8-8.4c21.5-0.2,43.2-0.5,64.6,1.1c13.8,1.1,27.7,2.9,41,7.1
	C216.4,40.9,216.6,40.4,216.2,40.3z M121.5,24.2c-0.1-1-0.6-1.9-1.2-2.7c-0.5-0.6-1.4-1.7-0.7-2.4c0.2-0.2,0.9-0.3,1.2-0.4
	c2-0.7,4.3-1.4,6.4-1.3c0.1,0,0.1,0,0.2,0c0.1,0,0.1,0,0.2,0c2-0.1,4.1,0.6,5.9,1.1c0.4,0.1,1,0.2,1.4,0.5c0.1,0.1,0.3,0.1,0.3,0.2
	c0.3,0.6-0.5,1.9-0.9,2.4c-0.6,0.7-1,1.6-1.1,2.5c-0.3,2.3,1.8,5,4.1,6.1c-3.3-0.2-6.7-0.4-10-0.4c-3.2,0-6.5,0.1-9.8,0.3
	C119.7,28.9,121.7,26.4,121.5,24.2z M143.7,31.7c-11.1-0.1-22.2-0.2-33.3-0.1c5.5-0.5,11.1-0.8,16.6-0.8c4.4,0,8.7,0.3,13.1,0.6
	c1.8,0.1,3.5,0.2,5.3,0.3C144.8,31.7,144.2,31.7,143.7,31.7z"/>
<text transform="matrix(1 0 0 1 49.2453 74)" class="st0 st1 st2">My Site Logo</text>
<path class="st3" d="M216.4,87.2L216.4,87.2c0,5.5-4.5,10-10,10h-79.3H47.9c-5.5,0-10-4.5-10-10v0"/>
</svg>
